<?xml version="1.0" encoding="utf-8"?>
<!-- Generator: Adobe Illustrator 22.1.0, SVG Export Plug-In . SVG Version: 6.00 Build 0)  -->
<svg version="1.1" id="Layer_1" xmlns="http://www.w3.org/2000/svg" xmlns:xlink="http://www.w3.org/1999/xlink" x="0px" y="0px"
	 viewBox="0 0 43.3 65" style="enable-background:new 0 0 43.3 65;" xml:space="preserve">
<style type="text/css">
	.st0{fill:#E64D3C;}
	.st1{fill:#C03B2B;}
</style>
<g>
	<path id="XMLID_5_" class="st0" d="M21.7,0C9.7,0,0,9.7,0,21.7c0,3.8,1,7.4,2.8,10.6c0.3,0.5,0.6,1,0.9,1.5L21.7,65l17.9-31.2
		c0.3-0.4,0.5-0.8,0.8-1.3l0.2-0.3c1.8-3.1,2.8-6.7,2.8-10.6C43.3,9.7,33.6,0,21.7,0z M21.7,10.8c6,0,10.8,4.9,10.8,10.8
		c0,6-4.9,10.8-10.8,10.8c-6,0-10.8-4.9-10.8-10.8C10.8,15.7,15.7,10.8,21.7,10.8z"/>
	<path id="XMLID_8_" class="st1" d="M21.7,8.1c-7.5,0-13.5,6.1-13.5,13.5c0,7.5,6.1,13.5,13.5,13.5c7.5,0,13.5-6.1,13.5-13.5
		C35.2,14.2,29.1,8.1,21.7,8.1z M21.7,13.5c4.5,0,8.1,3.6,8.1,8.1c0,4.5-3.6,8.1-8.1,8.1c-4.5,0-8.1-3.6-8.1-8.1
		C13.5,17.2,17.2,13.5,21.7,13.5z"/>
</g>
</svg>
